HIERARCHY
ROOT Hips
{
	OFFSET 0.000000 0.000000 0.000000
	CHANNELS 6 Xposition Yposition Zposition Zrotation Yrotation Xrotation 
	JOINT LeftUpLeg_virtual
	{
		OFFSET 0.000000 0.000000 0.000000
		CHANNELS 3 Zrotation Yrotation Xrotation
		JOINT LeftUpLeg
		{
			OFFSET 8.479694 -4.795517 -0.379053
			CHANNELS 3 Zrotation Yrotation Xrotation
			JOINT LeftLeg
			{
				OFFSET 0.485052 -32.551468 0.112863
				CHANNELS 3 Zrotation Yrotation Xrotation
				JOINT LeftFoot
				{
					OFFSET 0.438033 -32.635670 -3.012641
					CHANNELS 3 Zrotation Yrotation Xrotation
					JOINT LeftToeBase
					{
						OFFSET 0.970169 -13.225353 11.864223
						CHANNELS 3 Zrotation Yrotation Xrotation
						End Site
						{
							OFFSET 0.000000 0.000000 0.000000
						}
					}
				}
			}
		}
	}
	JOINT RightUpLeg_virtual
	{
		OFFSET 0.000000 0.000000 0.000000
		CHANNELS 3 Zrotation Yrotation Xrotation
		JOINT RightUpLeg
		{
			OFFSET -8.479694 -4.795517 -0.379053
			CHANNELS 3 Zrotation Yrotation Xrotation
			JOINT RightLeg
			{
				OFFSET -0.484100 -32.551483 0.112903
				CHANNELS 3 Zrotation Yrotation Xrotation
				JOINT RightFoot
				{
					OFFSET -0.438985 -32.635651 -3.012681
					CHANNELS 3 Zrotation Yrotation Xrotation
					JOINT RightToeBase
					{
						OFFSET -0.970169 -13.225354 11.864223
						CHANNELS 3 Zrotation Yrotation Xrotation
						End Site
						{
							OFFSET 0.000000 0.000000 0.000000
						}
					}
				}
			}
		}
	}
	JOINT Spine_virtual
	{
		OFFSET 0.000000 0.000000 0.000000
		CHANNELS 3 Zrotation Yrotation Xrotation
		JOINT Spine
		{
			OFFSET 0.000000 7.722015 1.166203
			CHANNELS 3 Zrotation Yrotation Xrotation
			JOINT Spine1
			{
				OFFSET 0.000000 12.024086 0.248766
				CHANNELS 3 Zrotation Yrotation Xrotation
				JOINT Spine2
				{
					OFFSET -0.000000 11.503036 -0.491240
					CHANNELS 3 Zrotation Yrotation Xrotation
					JOINT Neck_virtual
					{
						OFFSET 0.000000 0.000000 0.000000
						CHANNELS 3 Zrotation Yrotation Xrotation
						JOINT Neck
						{
							OFFSET 0.000000 18.430687 -3.123054
							CHANNELS 3 Zrotation Yrotation Xrotation
							JOINT Head
							{
								OFFSET -0.000000 9.051071 1.034021
								CHANNELS 3 Zrotation Yrotation Xrotation
								End Site
								{
									OFFSET 0.000000 0.000000 0.000000
								}
							}
						}
					}
					JOINT LeftShoulder_virtual
					{
						OFFSET 0.000000 0.000000 0.000000
						CHANNELS 3 Zrotation Yrotation Xrotation
						JOINT LeftShoulder
						{
							OFFSET 6.197824 13.665230 -4.064723
							CHANNELS 3 Zrotation Yrotation Xrotation
							JOINT LeftArm
							{
								OFFSET 7.778132 -0.187073 -1.709282
								CHANNELS 3 Zrotation Yrotation Xrotation
								JOINT LeftForeArm
								{
									OFFSET 21.954697 0.000000 -2.041093
									CHANNELS 3 Zrotation Yrotation Xrotation
									JOINT LeftHand
									{
										OFFSET 22.992908 0.000000 -0.870901
										CHANNELS 3 Zrotation Yrotation Xrotation
										End Site
										{
											OFFSET 0.000000 0.000000 0.000000
										}
									}
								}
							}
						}
					}
					JOINT RightShoulder_virtual
					{
						OFFSET 0.000000 0.000000 0.000000
						CHANNELS 3 Zrotation Yrotation Xrotation
						JOINT RightShoulder
						{
							OFFSET -6.197824 13.665230 -4.064723
							CHANNELS 3 Zrotation Yrotation Xrotation
							JOINT RightArm
							{
								OFFSET -7.778132 -0.187073 -1.709282
								CHANNELS 3 Zrotation Yrotation Xrotation
								JOINT RightForeArm
								{
									OFFSET -21.954697 0.000000 -2.041093
									CHANNELS 3 Zrotation Yrotation Xrotation
									JOINT RightHand
									{
										OFFSET -22.992908 0.000000 -0.870901
										CHANNELS 3 Zrotation Yrotation Xrotation
										End Site
										{
											OFFSET 0.000000 0.000000 0.000000
										}
									}
								}
							}
						}
					}
				}
			}
		}
	}
}
MOTION
Frames: 5
Frame Time: 0.033333
0.320448 81.103394 42.034870 179.924436 4.929804 -179.952098 -4.107525 -1.690398 11.108506 -1.322577 4.346461 -23.530459 10.133959 4.128061 31.009667 2.165440 -11.018800 -13.119022 0.000000 0.000000 0.000000 -0.915179 -1.439551 10.588376 -2.433161 1.131409 -20.088932 -1.255696 3.508288 29.200165 8.779447 4.872800 -12.806187 0.000000 0.000000 0.000000 3.179211 0.994660 -0.119106 -6.591907 1.527063 -0.487246 0.519253 -2.249189 4.289074 0.046708 0.088123 0.005595 0.250009 -1.287342 7.225486 0.648614 2.012690 -3.111167 0.000000 0.000000 0.000000 1.699537 -0.425686 4.035953 -4.678068 8.118322 -8.334987 1.466161 -5.156114 -54.734817 1.298651 -37.525776 -0.385382 0.000000 0.000000 0.000000 -2.141404 0.828743 3.501361 21.485887 -12.527286 -13.640430 2.713410 -5.193854 -53.406171 -0.834724 30.958594 5.004457 0.000000 0.000000 0.000000 
0.353795 81.099174 42.018673 179.830821 5.094474 -179.918425 -3.988762 -1.899398 11.258357 -1.081076 3.738741 -23.413764 10.244018 3.598557 31.167622 2.217226 -11.005538 -13.715632 0.000000 0.000000 0.000000 -0.941771 -1.328119 10.575324 -2.390413 0.801872 -20.120889 -1.263029 3.287864 29.264123 8.713689 4.794414 -12.761923 0.000000 0.000000 0.000000 3.119295 1.027442 -0.090104 -6.585941 1.499877 -0.469853 0.514302 -2.216928 4.352775 0.036061 0.109402 0.039703 0.286818 -1.237897 7.376341 0.694360 1.959640 -2.957899 0.000000 0.000000 0.000000 1.698438 -0.339018 4.008095 -4.757485 8.491953 -8.408642 1.137184 -4.154543 -54.939880 1.275116 -37.369024 -0.321681 0.000000 0.000000 0.000000 -2.130543 0.842332 3.600036 21.480465 -12.786956 -13.749503 3.151990 -6.086966 -53.723724 -0.941891 31.026653 4.954519 0.000000 0.000000 0.000000 
0.361145 81.108032 41.990959 179.836039 5.203264 -179.853839 -3.966559 -1.820818 11.289778 -1.097122 3.730581 -23.464039 10.271504 3.601027 31.158353 2.211643 -10.944612 -13.697764 0.000000 0.000000 0.000000 -0.955255 -1.277320 10.639500 -2.376442 0.788014 -20.179989 -1.260139 3.254466 29.218812 8.773498 4.846319 -12.656205 0.000000 0.000000 0.000000 3.084989 1.100599 -0.051160 -6.549319 1.442737 -0.453398 0.536493 -2.243950 4.413436 0.062723 0.070773 0.019772 0.246719 -1.257622 7.488726 0.747397 1.998338 -2.870625 0.000000 0.000000 0.000000 1.751652 -0.285143 4.068719 -4.829672 9.072897 -8.410172 0.643062 -2.761196 -55.904344 1.328873 -37.359694 -0.293672 0.000000 0.000000 0.000000 -2.164978 0.959796 3.692060 21.555792 -13.203303 -13.904357 3.789629 -7.564601 -54.291866 -0.995878 31.504603 5.081837 0.000000 0.000000 0.000000 
0.338964 81.122833 41.950684 179.799621 5.246492 -179.899997 -3.969533 -1.783094 11.351114 -1.153907 3.693393 -23.430102 10.287457 3.572695 31.091492 2.163815 -10.904695 -13.604367 0.000000 0.000000 0.000000 -0.978471 -1.282647 10.723177 -2.408091 0.724867 -20.157273 -1.293911 3.290697 29.081859 8.835622 4.877558 -12.608907 0.000000 0.000000 0.000000 3.062248 1.148862 0.065082 -6.495171 1.376123 -0.382543 0.535554 -2.261702 4.493461 0.065815 0.046446 0.008166 0.220432 -1.232321 7.569945 0.909755 2.014041 -2.694777 0.000000 0.000000 0.000000 1.748264 -0.312285 4.109525 -5.022279 9.625069 -8.571744 -0.012106 -1.478844 -57.081049 1.327312 -37.128177 -0.202787 0.000000 0.000000 0.000000 -2.169774 0.892428 3.774648 21.534446 -13.819928 -14.234054 4.535021 -9.015773 -54.805663 -1.176080 32.036633 5.131325 0.000000 0.000000 0.000000 
0.283983 81.146851 41.909199 179.824893 5.663487 -179.926676 -3.952331 -1.595826 11.380426 -1.252589 3.791747 -23.369415 10.305066 3.702934 31.017576 2.162182 -10.789363 -13.540363 0.000000 0.000000 0.000000 -0.939127 -1.028274 10.728063 -2.475099 0.772493 -20.093621 -1.319718 3.361922 28.957885 8.904956 4.908282 -12.538602 0.000000 0.000000 0.000000 3.089834 1.384500 0.164089 -6.449015 1.535416 -0.327387 0.473428 -2.296490 4.578469 0.063817 0.175982 0.035521 0.245413 -1.365264 7.579070 1.221535 1.931492 -2.454222 0.000000 0.000000 0.000000 1.663412 -0.355822 4.202813 -5.021520 10.108330 -8.699450 -0.534532 -0.670944 -58.537815 1.545682 -36.746247 -0.262588 0.000000 0.000000 0.000000 -2.238534 0.827795 3.727336 21.784868 -14.351011 -14.347639 5.003785 -10.262793 -55.258092 -1.406968 32.298291 5.186289 0.000000 0.000000 0.000000 
